[Header]
FileType HTR
DataType HTRS
FileVersion 1
NumSegments 48
NumFrames 3
DataFrameRate 30
EulerRotationOrder ZYX
CalibrationUnits mm
RotationUnits Degrees
GlobalAxisofGravity Y
BoneLengthAxis Y
ScaleFactor 1.0
[SegmentNames&Hierarchy]
Wolf	GLOBAL
Becken	Wolf
Bauch	Becken
Bauch_001	Bauch
Brust	Bauch_001
Hals	Brust
Kopf_002	Hals
Kopf	Kopf_002
Unterkiefer	Kopf
Hals_fett	Unterkiefer
Maulunten	Unterkiefer
Mauloben	Kopf
MundW_L	Kopf
MundW_R	Kopf
Augen_con	Kopf
IK_Aug_R	Augen_con
IK_Aug_L	Augen_con
Aug_R	Kopf
aug_L	Kopf
Ohr_L	Kopf
Ohr_R	Kopf
Braun_O_L	Kopf
Braun_O_R	Kopf
aug_lied_O_L	Kopf
aug_lied_O_R	Kopf
aug_lied_U_L	Kopf
aug_lied_U_R	Kopf
Bauch_003	Brust
Schalterplatte_L	Bauch_003
Oberarm_L	Schalterplatte_L
Unterarm_L	Oberarm_L
Vorderpfote_L	Unterarm_L
Schalterplatte_R	Bauch_003
Oberarm_R	Schalterplatte_R
Unterarm_R	Oberarm_R
Vorderpfote_R	Unterarm_R
Schwanz	Becken
Schwanz_001	Schwanz
Schwanz_002	Schwanz_001
Schwanz_003	Schwanz_002
Oberschenkel_L	Becken
Unterschenkel_L	Oberschenkel_L
Pfote1_L	Unterschenkel_L
Pfote2_L	Pfote1_L
Oberschenkel_R	Becken
Unterschenkel_R	Oberschenkel_R
Pfote1_R	Unterschenkel_R
Pfote2_R	Pfote1_R
[BasePosition]
Wolf	0	0	0	0	0	0	1
Becken	0	0	0	0	0	0	1
Bauch	0	0	0	0	0	0	1
Bauch_001	0	0	0	0	0	0	1
Brust	0	0	0	0	0	0	1
Hals	0	0	0	0	0	0	1
Kopf_002	0	0	0	0	0	0	1
Kopf	0	0	0	0	0	0	1
Unterkiefer	0	0	0	0	0	0	1
Hals_fett	0	0	0	0	0	0	1
Maulunten	0	0	0	0	0	0	1
Mauloben	0	0	0	0	0	0	1
MundW_L	0	0	0	0	0	0	1
MundW_R	0	0	0	0	0	0	1
Augen_con	0	0	0	0	0	0	1
IK_Aug_R	0	0	0	0	0	0	1
IK_Aug_L	0	0	0	0	0	0	1
Aug_R	0	0	0	0	0	0	1
aug_L	0	0	0	0	0	0	1
Ohr_L	0	0	0	0	0	0	1
Ohr_R	0	0	0	0	0	0	1
Braun_O_L	0	0	0	0	0	0	1
Braun_O_R	0	0	0	0	0	0	1
aug_lied_O_L	0	0	0	0	0	0	1
aug_lied_O_R	0	0	0	0	0	0	1
aug_lied_U_L	0	0	0	0	0	0	1
aug_lied_U_R	0	0	0	0	0	0	1
Bauch_003	0	0	0	0	0	0	1
Schalterplatte_L	0	0	0	0	0	0	1
Oberarm_L	0	0	0	0	0	0	1
Unterarm_L	0	0	0	0	0	0	1
Vorderpfote_L	0	0	0	0	0	0	1
Schalterplatte_R	0	0	0	0	0	0	1
Oberarm_R	0	0	0	0	0	0	1
Unterarm_R	0	0	0	0	0	0	1
Vorderpfote_R	0	0	0	0	0	0	1
Schwanz	0	0	0	0	0	0	1
Schwanz_001	0	0	0	0	0	0	1
Schwanz_002	0	0	0	0	0	0	1
Schwanz_003	0	0	0	0	0	0	1
Oberschenkel_L	0	0	0	0	0	0	1
Unterschenkel_L	0	0	0	0	0	0	1
Pfote1_L	0	0	0	0	0	0	1
Pfote2_L	0	0	0	0	0	0	1
Oberschenkel_R	0	0	0	0	0	0	1
Unterschenkel_R	0	0	0	0	0	0	1
Pfote1_R	0	0	0	0	0	0	1
Pfote2_R	0	0	0	0	0	0	1
[Wolf]
19	0	0	0	-90	-0	0	1.0
20	0	0	0	-90	-0	0	1.0
21	0	0	0	-90	-0	0	1.0
[Becken]
19	0	-0.5154260397	0.9290300608	-1.91564709e-06	149.8134308	90	1.0
20	0	-0.5296901464	1.245877981	-1.91564709e-06	146.3168488	90	1.0
21	0	-0.5106901526	1.499149919	-1.91564709e-06	144.8956909	90	1.0
[Bauch]
19	0.7830194235	7.68020243e-08	-0.515438199	8.746882827e-07	29.923563	4.853698101e-07	1.0
20	0.9001464844	7.68020243e-08	-0.437928915	8.746882827e-07	32.12564468	4.853698101e-07	1.0
21	1.017273545	7.68020243e-08	-0.3604196906	8.746882827e-07	32.95232773	4.853698101e-07	1.0
[Bauch_001]
19	0.5406166315	4.020625255e-08	0.2840388119	1.051260369e-06	13.19787025	4.625552208e-08	1.0
20	0.5346953869	4.020625255e-08	0.2566883266	1.051260369e-06	12.87557125	4.625552208e-08	1.0
21	0.5325475931	4.020625255e-08	0.2442705631	1.051260369e-06	12.72985363	4.625552208e-08	1.0
[Brust]
19	1.106168509	8.38275227e-08	0.5765206814	-2.585561106e-06	34.09701157	-6.053789093e-06	1.0
20	1.109137535	8.38275227e-08	0.6208326817	-2.585561106e-06	35.73044968	-6.053789093e-06	1.0
21	1.110329151	8.38275227e-08	0.6386300325	-2.585561106e-06	36.3853569	-6.053789093e-06	1.0
[Hals]
19	1.290871382	9.550224433e-08	0.7709831595	-1.920878731e-06	10.42627907	-4.161266588e-06	1.0
20	1.272390366	9.550224433e-08	0.7583460212	-1.920878731e-06	9.038346291	-4.161266588e-06	1.0
21	1.264965653	9.550224433e-08	0.7532671094	-1.920878731e-06	8.48153019	-4.161266588e-06	1.0
[Kopf_002]
19	1.752594829	3.013231981e-05	0.2651812136	0.006653484888	-165.1497192	0.002557621803	1.0
20	1.752594829	3.013231981e-05	0.2651812136	0.006653484888	-165.1497192	0.002557621803	1.0
21	1.752594829	3.013231981e-05	0.2651812136	0.006653484888	-165.1497192	0.002557621803	1.0
[Kopf]
19	1.038001537	7.839815908e-08	-0.04584503919	0.05092187598	109.9243851	-0.0420967415	1.0
20	1.037500978	7.839815908e-08	-0.0496577248	0.0467265062	108.0682068	-0.04605408758	1.0
21	1.037000418	7.839815908e-08	-0.05118574947	0.04473958537	107.324501	-0.04794608802	1.0
[Unterkiefer]
19	0.6370446682	0.004552738741	0.4060619473	5.41272068	-68.38880157	-3.093541861	1.0
20	0.6370446682	0.004552738741	0.4060619473	5.41272068	-68.38880157	-3.093541861	1.0
21	0.6370446682	0.004552738741	0.4060619473	5.41272068	-68.38880157	-3.093541861	1.0
[Hals_fett]
19	0.2998236716	0.007747383788	0.1206455454	-5.071650982	-59.35961151	5.585565567	1.0
20	0.2998236716	0.007747383788	0.1206455454	-5.071650982	-59.35961151	5.585565567	1.0
21	0.2998236716	0.007747383788	0.1206455454	-5.071650982	-59.35961151	5.585565567	1.0
[Maulunten]
19	0.08317924291	-0.007747320924	-0.1206462979	-3.322208881	38.97270966	-0.8718757033	1.0
20	0.08317924291	-0.007747320924	-0.1206462979	-3.322208881	38.97270966	-0.8718757033	1.0
21	0.08317924291	-0.007747320924	-0.1206462979	-3.322208881	38.97270966	-0.8718757033	1.0
[Mauloben]
19	0.9101490974	0.0004056780017	0.400369823	-0.103267692	-28.77768707	0.0354314521	1.0
20	0.9101490974	0.0004056780017	0.400369823	-0.103267692	-28.77768707	0.0354314521	1.0
21	0.9101490974	0.0004056780017	0.400369823	-0.103267692	-28.77768707	0.0354314521	1.0
[MundW_L]
19	0.6730612516	-0.3618556559	0.3751283288	-179.8370972	-17.94884682	24.71397018	1.0
20	0.6730612516	-0.3618556559	0.3751283288	-179.8370972	-17.94884682	24.71397018	1.0
21	0.6730612516	-0.3618556559	0.3751283288	-179.8370972	-17.94884682	24.71397018	1.0
[MundW_R]
19	0.6732413769	0.362703532	0.3739836514	179.665329	-18.0242691	-24.69084167	1.0
20	0.6732413769	0.362703532	0.3739836514	179.665329	-18.0242691	-24.69084167	1.0
21	0.6732413769	0.362703532	0.3739836514	179.665329	-18.0242691	-24.69084167	1.0
[Augen_con]
19	1.807373762	-0.0001604075951	0.1835815907	0.09822228551	157.1545258	0.02385941148	1.0
20	1.807373762	-0.0001604075951	0.1835815907	0.09822228551	157.1545258	0.02385941148	1.0
21	1.807373762	-0.0001604075951	0.1835815907	0.09822228551	157.1545258	0.02385941148	1.0
[IK_Aug_R]
19	0.3461297154	0.2943200171	3.136494797e-07	-0.4194768965	-4.963055134	165.6946411	1.0
20	0.3461297154	0.2943200171	3.136494797e-07	-0.4194768965	-4.963055134	165.6946411	1.0
21	0.3461297154	0.2943200171	3.136494797e-07	-0.4194768965	-4.963055134	165.6946411	1.0
[IK_Aug_L]
19	0.3461298645	-0.2943200171	3.034585916e-07	0.4194775522	-4.963055611	-165.6946411	1.0
20	0.3461298645	-0.2943200171	3.034585916e-07	0.4194775522	-4.963055611	-165.6946411	1.0
21	0.3461298645	-0.2943200171	3.034585916e-07	0.4194775522	-4.963055611	-165.6946411	1.0
[Aug_R]
19	1.035154939	0.220780611	-0.09605786204	176.004776	-17.29164886	12.85548782	1.0
20	1.035154939	0.220780611	-0.09605786204	176.004776	-17.29164886	12.85548782	1.0
21	1.035154939	0.220780611	-0.09605786204	176.004776	-17.29164886	12.85548782	1.0
[aug_L]
19	1.035047412	-0.2215989083	-0.09536846727	-176.1891174	-17.33176422	-12.83101749	1.0
20	1.035047412	-0.2215989083	-0.09536846727	-176.1891174	-17.33176422	-12.83101749	1.0
21	1.035047412	-0.2215989083	-0.09536846727	-176.1891174	-17.33176422	-12.83101749	1.0
[Ohr_L]
19	0.6407766938	-0.365999192	-0.6893325448	-24.34924316	53.07766342	-15.02013397	1.0
20	0.6407766938	-0.365999192	-0.6893325448	-24.34924316	53.07766342	-15.02013397	1.0
21	0.6407766938	-0.365999192	-0.6893325448	-24.34924316	53.07766342	-15.02013397	1.0
[Ohr_R]
19	0.6409586668	0.3634999394	-0.6904851198	24.05786133	53.12416458	14.75857353	1.0
20	0.6409586668	0.3634999394	-0.6904851198	24.05786133	53.12416458	14.75857353	1.0
21	0.6409586668	0.3634999394	-0.6904851198	24.05786133	53.12416458	14.75857353	1.0
[Braun_O_L]
19	0.9801893234	-0.3706049621	-0.3292511106	-143.317215	-34.69634628	52.39493942	1.0
20	0.9801893234	-0.3706049621	-0.3292511106	-143.317215	-34.69634628	52.39493942	1.0
21	0.9801893234	-0.3706049621	-0.3292511106	-143.317215	-34.69634628	52.39493942	1.0
[Braun_O_R]
19	0.9803637862	0.369074285	-0.3304226696	143.182663	-34.83971786	-52.3467598	1.0
20	0.9803637862	0.369074285	-0.3304226696	143.182663	-34.83971786	-52.3467598	1.0
21	0.9803637862	0.369074285	-0.3304226696	143.182663	-34.83971786	-52.3467598	1.0
[aug_lied_O_L]
19	1.038882613	-0.3271434009	-0.1608110666	-175.8613434	-20.15596771	60.31667709	1.0
20	1.038882613	-0.3271434009	-0.1608110666	-175.8613434	-20.15596771	60.31667709	1.0
21	1.038882613	-0.3271434009	-0.1608110666	-175.8613434	-20.15596771	60.31667709	1.0
[aug_lied_O_R]
19	1.039044976	0.326115787	-0.1618431509	175.7657928	-20.31323814	-60.31218338	1.0
20	1.039044976	0.326115787	-0.1618431509	175.7657928	-20.31323814	-60.31218338	1.0
21	1.039044976	0.326115787	-0.1618431509	175.7657928	-20.31323814	-60.31218338	1.0
[aug_lied_U_L]
19	1.021916747	-0.3312866092	-0.1338487417	-159.8099365	-28.7482872	60.17462158	1.0
20	1.021916747	-0.3312866092	-0.1338487417	-159.8099365	-28.7482872	60.17462158	1.0
21	1.021916747	-0.3312866092	-0.1338487417	-159.8099365	-28.7482872	60.17462158	1.0
[aug_lied_U_R]
19	1.022078514	0.3303526044	-0.1348845363	159.7071381	-28.90531921	-60.15359879	1.0
20	1.022078514	0.3303526044	-0.1348845363	159.7071381	-28.90531921	-60.15359879	1.0
21	1.022078514	0.3303526044	-0.1348845363	159.7071381	-28.90531921	-60.15359879	1.0
[Bauch_003]
19	1.276869178	9.640092458e-08	-0.6079563498	-3.938861937e-06	-137.6799469	1.017604518e-05	1.0
20	1.276869178	9.640092458e-08	-0.6079563498	-3.938861937e-06	-137.6799469	1.017604518e-05	1.0
21	1.276869178	9.640092458e-08	-0.6079563498	-3.938861937e-06	-137.6799469	1.017604518e-05	1.0
[Schalterplatte_L]
19	0.8925708532	-0.3820799291	2.05982893e-08	-61.38891602	75.29949951	-88.77108002	1.0
20	0.8925708532	-0.3820799291	2.05982893e-08	-7.372581005	71.30360413	-33.39508438	1.0
21	0.8925708532	-0.3820799291	2.05982893e-08	10.94477749	55.16728973	-15.21652603	1.0
[Oberarm_L]
19	1.418637037	6.984918599e-08	2.142041922e-07	-85.93994141	-63.99461365	96.53013611	1.0
20	1.418637037	6.984918599e-08	2.142041922e-07	-60.20719147	-56.78293991	64.02114868	1.0
21	1.418637037	6.984918599e-08	2.142041922e-07	-38.75128937	-36.46147537	33.50658417	1.0
[Unterarm_L]
19	2.028227091	1.769512892e-07	2.468004823e-07	18.32373428	64.84394073	21.46657944	1.0
20	2.028227091	1.769512892e-07	2.468004823e-07	2.538761139	44.13678741	2.880387306	1.0
21	2.028227091	1.769512892e-07	2.468004823e-07	-0.9998300672	16.65845299	-1.775895834	1.0
[Vorderpfote_L]
19	1.705947876	2.095475793e-07	-1.816079021e-07	-8.376070976	25.80810928	8.861369133	1.0
20	1.705947876	2.095475793e-07	-1.816079021e-07	-4.811787605	54.03559875	1.962429881	1.0
21	1.705947876	2.095475793e-07	-1.816079021e-07	-3.238248348	58.84256363	-2.171986341	1.0
[Schalterplatte_R]
19	0.892570734	0.3820800781	8.883210967e-08	103.9441757	76.41508484	140.9024048	1.0
20	0.892570734	0.3820800781	8.883210967e-08	88.42045593	79.50685883	122.6587601	1.0
21	0.892570734	0.3820800781	8.883210967e-08	77.57631683	80.30167389	110.2046204	1.0
[Oberarm_R]
19	1.418637633	1.862644972e-08	1.862644972e-08	98.36698151	-53.31089783	-115.4277573	1.0
20	1.418637633	1.862644972e-08	1.862644972e-08	77.56126404	-54.85565948	-88.5388031	1.0
21	1.418637633	1.862644972e-08	1.862644972e-08	65.31656647	-52.50033188	-72.97796631	1.0
[Unterarm_R]
19	2.028232336	9.313225746e-08	-3.247987479e-07	-2.988782883	74.21495056	-3.826220751	1.0
20	2.028232336	9.313225746e-08	-3.247987479e-07	2.176799059	67.39553833	2.381036997	1.0
21	2.028232336	9.313225746e-08	-3.247987479e-07	2.411249399	60.31367874	2.920262098	1.0
[Vorderpfote_R]
19	1.705937147	1.11758709e-07	-3.015156835e-07	18.60393524	-6.532697678	-9.066740036	1.0
20	1.705937147	1.11758709e-07	-3.015156835e-07	16.21760559	7.488868713	-4.835089684	1.0
21	1.705937147	1.11758709e-07	-3.015156835e-07	15.09826851	15.5019083	-2.496071339	1.0
[Schwanz]
19	-0.05070063472	-7.265629876e-09	-0.1815776676	-0.1020215079	-158.8070068	-1.55013895	1.0
20	-0.07346847653	-7.265629876e-09	-0.06287035346	-0.1724306494	-161.2541504	-1.525368333	1.0
21	-0.09623631835	-7.265629876e-09	0.05583696067	-0.1995050907	-162.2219543	-1.516830444	1.0
[Schwanz_001]
19	0.9104328156	6.635672634e-08	-8.707502275e-08	0.3359469175	24.41208649	-0.3030597568	1.0
20	0.9104328156	6.635672634e-08	-8.707502275e-08	0.3827864826	26.52551651	-0.2588584721	1.0
21	0.9104328156	6.635672634e-08	-8.707502275e-08	0.402662307	27.37918663	-0.2400208563	1.0
[Schwanz_002]
19	0.7855660915	6.082701276e-08	-2.382875941e-08	0.8208687901	26.15625572	-0.3978070617	1.0
20	0.7855660915	6.082701276e-08	-2.382875941e-08	0.8329814076	27.8181076	-0.3709324598	1.0
21	0.7855660915	6.082701276e-08	-2.382875941e-08	0.8382800817	28.49206924	-0.3597416282	1.0
[Schwanz_003]
19	0.8350354433	5.987204332e-08	5.614651855e-08	8.880763289e-07	-11.60312271	-8.974389942e-08	1.0
20	0.8350354433	5.987204332e-08	5.614651855e-08	8.880763289e-07	-11.60312271	-8.974389942e-08	1.0
21	0.8350354433	5.987204332e-08	5.614651855e-08	8.880763289e-07	-11.60312271	-8.974389942e-08	1.0
[Oberschenkel_L]
19	-0.2893359661	-0.5834400654	0.5694425106	33.83660507	-77.21789551	-29.18861389	1.0
20	-0.3457201719	-0.5834400654	0.609380722	46.01154709	-81.76015472	-41.59789658	1.0
21	-0.3683827817	-0.5834400654	0.6254253387	29.49183846	-77.71240997	-24.8570118	1.0
[Unterschenkel_L]
19	1.686439037	1.338776201e-07	-7.450580597e-08	-7.177444458	-14.35640335	16.28175545	1.0
20	1.686439037	1.338776201e-07	-7.450580597e-08	-11.07505608	-33.35613251	20.2433033	1.0
21	1.686439037	1.338776201e-07	-7.450580597e-08	-14.50893021	-41.63170624	22.05763054	1.0
[Pfote1_L]
19	1.190900326	9.313225746e-08	1.065200195e-07	2.375760317	21.61702347	-5.207327366	1.0
20	1.190900326	9.313225746e-08	1.065200195e-07	1.756150126	38.71072388	-6.679180622	1.0
21	1.190900326	9.313225746e-08	1.065200195e-07	2.715100288	20.49032974	-4.899327755	1.0
[Pfote2_L]
19	0.9876260161	9.313225746e-08	-5.820770088e-09	13.12151051	76.12052917	6.668785572	1.0
20	0.9876260161	9.313225746e-08	-5.820770088e-09	1.495412469	30.99386406	-3.522076368	1.0
21	0.9876260161	9.313225746e-08	-5.820770088e-09	0.4525207281	-4.310858727	-3.984850168	1.0
[Oberschenkel_R]
19	-0.1939821541	0.5836999416	0.6373591423	-21.46658134	-71.78417969	16.54219055	1.0
20	-0.2503663599	0.5836999416	0.6772973537	-23.34787369	-73.74848938	18.51828384	1.0
21	-0.2730289996	0.5836999416	0.6933418512	-20.66900635	-71.17316437	15.71492481	1.0
[Unterschenkel_R]
19	1.68644917	1.234002411e-07	9.313230187e-09	-38.73382568	-115.6218643	43.73555756	1.0
20	1.68644917	1.234002411e-07	9.313230187e-09	-46.72042847	-109.5545883	40.41282654	1.0
21	1.68644917	1.234002411e-07	9.313230187e-09	-50.50025177	-104.3140335	35.76695633	1.0
[Pfote1_R]
19	1.190900326	4.656610209e-09	5.355104804e-08	-5.925866604	62.99966049	1.333683491	1.0
20	1.190900326	4.656610209e-09	5.355104804e-08	-8.213358879	71.01161194	-1.189149141	1.0
21	1.190900326	4.656610209e-09	5.355104804e-08	-7.843748093	70.25105286	-0.7976107001	1.0
[Pfote2_R]
19	0.9876259565	8.381903172e-08	1.071020961e-07	-12.2173214	-0.3621379733	-3.188195705	1.0
20	0.9876259565	8.381903172e-08	1.071020961e-07	-2.710852146	-22.47889328	4.461306095	1.0
21	0.9876259565	8.381903172e-08	1.071020961e-07	5.604823112	-32.65484238	6.186705112	1.0
[EndOfFile]
